<svg width="52" height="52" viewBox="0 0 52 52" fill="none" xmlns="http://www.w3.org/2000/svg">
<path d="M39.5381 9.93178C41.1939 9.37985 42.022 9.10414 42.459 9.54116C42.8957 9.97819 42.6202 10.8057 42.0684 12.4611L32.2305 41.9748C31.4461 44.3278 31.0537 45.504 30.333 45.504C29.6124 45.5039 29.2199 44.3277 28.4355 41.9748L24.1865 29.2267L33.207 20.2072C33.5973 19.8167 33.5973 19.1836 33.207 18.7931C32.8166 18.4026 32.1835 18.4028 31.793 18.7931L22.7725 27.8126L10.0254 23.5636C7.6727 22.7794 6.49563 22.3876 6.49512 21.6671C6.49512 20.9464 7.67218 20.5541 10.0254 19.7697L39.5381 9.93178Z" fill="#40C9FF"/>
</svg>
