<svg width="52" height="52" viewBox="0 0 52 52" fill="none" xmlns="http://www.w3.org/2000/svg">
<path d="M25.9998 15.6667C28.1167 15.6667 29.8336 17.3828 29.8337 19.4997C29.8337 21.6168 28.1168 23.3337 25.9998 23.3337C23.8828 23.3335 22.1667 21.6167 22.1667 19.4997C22.1669 17.3829 23.8829 15.6669 25.9998 15.6667Z" stroke="white" stroke-linecap="round"/>
<path d="M33.5136 17.5834C34.0219 16.7029 34.8592 16.0604 35.8412 15.7973C36.8232 15.5342 37.8695 15.6719 38.75 16.1803C39.6305 16.6886 40.2729 17.5259 40.5361 18.5079C40.7992 19.4899 40.6614 20.5362 40.1531 21.4167C39.6448 22.2971 38.8075 22.9396 37.8255 23.2027C36.8435 23.4659 35.7971 23.3281 34.9167 22.8198C34.0362 22.3115 33.3937 21.4742 33.1306 20.4922C32.8675 19.5101 33.0052 18.4638 33.5136 17.5834L33.5136 17.5834Z" stroke="white"/>
<path d="M11.8468 17.5834C12.3552 16.7029 13.1924 16.0604 14.1744 15.7973C15.1565 15.5342 16.2028 15.6719 17.0833 16.1803C17.9637 16.6886 18.6062 17.5259 18.8693 18.5079C19.1324 19.4899 18.9947 20.5362 18.4863 21.4167C17.978 22.2971 17.1407 22.9396 16.1587 23.2027C15.1767 23.4659 14.1304 23.3281 13.2499 22.8198C12.3695 22.3115 11.727 21.4742 11.4639 20.4922C11.2007 19.5101 11.3385 18.4638 11.8468 17.5834L11.8468 17.5834Z" stroke="white"/>
<path d="M35.7505 27.083L35.7505 26.583H35.7505V27.083ZM44.3354 34.7568L44.8311 34.6907L44.831 34.6906L44.3354 34.7568ZM32.5835 35.75L32.5835 35.25L32.5835 36.25V35.75ZM33.5122 34.7559L34.0088 34.6978L34.0088 34.6978L33.5122 34.7559ZM30.5493 28.5713L30.2585 28.1645L29.7266 28.5449L30.233 28.9585L30.5493 28.5713ZM35.7505 27.083L35.7505 27.583C39.0155 27.5831 40.9388 28.861 42.0969 30.3709C43.2742 31.9057 43.6932 33.7248 43.8399 34.823L44.3354 34.7568L44.831 34.6906C44.6737 33.513 44.2198 31.4954 42.8904 29.7622C41.5418 28.0042 39.3245 26.5831 35.7505 26.583L35.7505 27.083ZM44.3354 34.7568L43.8398 34.823C43.8679 35.0334 43.7051 35.25 43.4165 35.25V35.75V36.25C44.2324 36.25 44.9491 35.575 44.8311 34.6907L44.3354 34.7568ZM43.4165 35.75V35.25H32.5835V35.75V36.25H43.4165V35.75ZM32.5835 35.75L32.5835 36.25C33.4012 36.2499 34.1115 35.576 34.0088 34.6978L33.5122 34.7559L33.0156 34.8139C33.0412 35.0328 32.8703 35.25 32.5835 35.25L32.5835 35.75ZM33.5122 34.7559L34.0088 34.6978C33.8284 33.1551 33.1892 30.082 30.8656 28.184L30.5493 28.5713L30.233 28.9585C32.2377 30.596 32.8412 33.3228 33.0156 34.8139L33.5122 34.7559ZM30.5493 28.5713L30.8401 28.978C31.9853 28.1593 33.5616 27.583 35.7505 27.583V27.083V26.583C33.375 26.583 31.5904 27.2124 30.2585 28.1645L30.5493 28.5713Z" fill="white"/>
<path d="M16.2504 27.083L16.2504 26.583H16.2504V27.083ZM21.4496 28.5713L21.766 28.9585L22.2724 28.5447L21.7403 28.1645L21.4496 28.5713ZM18.4877 34.7559L17.9911 34.6978L17.9911 34.6978L18.4877 34.7559ZM19.4164 35.75V36.25L19.4166 35.25L19.4164 35.75ZM8.5834 35.75L8.58335 36.25H8.5834V35.75ZM7.66445 34.7568L7.16885 34.6906L7.16884 34.6907L7.66445 34.7568ZM16.2504 27.083L16.2504 27.583C18.4385 27.583 20.0137 28.1596 21.1589 28.9781L21.4496 28.5713L21.7403 28.1645C20.4088 27.2128 18.6254 26.5831 16.2504 26.583L16.2504 27.083ZM21.4496 28.5713L21.1332 28.1841C18.8103 30.0821 18.1715 33.1553 17.9911 34.6978L18.4877 34.7559L18.9843 34.8139C19.1587 33.3229 19.7618 30.596 21.766 28.9585L21.4496 28.5713ZM18.4877 34.7559L17.9911 34.6978C17.8884 35.576 18.5989 36.2497 19.4163 36.25L19.4164 35.75L19.4166 35.25C19.1296 35.2499 18.9587 35.0326 18.9843 34.8139L18.4877 34.7559ZM19.4164 35.75V35.25H8.5834V35.75V36.25H19.4164V35.75ZM8.5834 35.75L8.58344 35.25C8.29483 35.25 8.13197 35.0334 8.16006 34.823L7.66445 34.7568L7.16884 34.6907C7.05082 35.575 7.76754 36.2499 8.58335 36.25L8.5834 35.75ZM7.66445 34.7568L8.16005 34.823C8.30675 33.7248 8.72587 31.9056 9.90334 30.3708C11.0617 28.8609 12.9852 27.583 16.2504 27.583V27.083V26.583C12.6762 26.583 10.4587 28.004 9.10993 29.7621C7.78031 31.4952 7.32617 33.5129 7.16885 34.6906L7.66445 34.7568Z" fill="white"/>
<path d="M26.0001 27.0833C31.9838 27.0833 33.246 32.4794 33.5122 34.7558C33.5764 35.3044 33.1357 35.75 32.5834 35.75H19.4167C18.8645 35.75 18.4238 35.3044 18.4879 34.7558C18.7542 32.4794 20.0164 27.0833 26.0001 27.0833Z" stroke="white" stroke-linecap="round"/>
<path d="M40.0833 46.5833H45.0833C45.9117 46.5833 46.5833 45.9117 46.5833 45.0833V40.0833" stroke="#E81CFF" stroke-linecap="round"/>
<path d="M40.0833 5.41666H45.0833C45.9117 5.41666 46.5833 6.08823 46.5833 6.91666V11.9167" stroke="white" stroke-linecap="round"/>
<path d="M11.9167 46.5833H6.91675C6.08832 46.5833 5.41675 45.9117 5.41675 45.0833V40.0833" stroke="white" stroke-linecap="round"/>
<path d="M11.9167 5.41666H6.91675C6.08832 5.41666 5.41675 6.08823 5.41675 6.91666V11.9167" stroke="#E81CFF" stroke-linecap="round"/>
</svg>
