<svg width="52" height="52" viewBox="0 0 52 52" fill="none" xmlns="http://www.w3.org/2000/svg">
<path d="M6.5 14.6667C6.5 11.8382 6.5 10.424 7.37868 9.54534C8.25736 8.66666 9.67157 8.66666 12.5 8.66666H39.5C42.3284 8.66666 43.7426 8.66666 44.6213 9.54534C45.5 10.424 45.5 11.8382 45.5 14.6667V20.0417C45.5 20.6253 45.5 20.9171 45.3819 21.1381C45.2887 21.3125 45.1458 21.4553 44.9714 21.5486C44.7505 21.6667 44.4587 21.6667 43.875 21.6667H43.3333C42.0918 21.6667 41.471 21.6667 40.9739 21.8476C40.1406 22.1509 39.4842 22.8073 39.1809 23.6406C39 24.1377 39 24.7584 39 26V26C39 27.2415 39 27.8623 39.1809 28.3594C39.4842 29.1927 40.1406 29.8491 40.9739 30.1524C41.471 30.3333 42.0918 30.3333 43.3333 30.3333H43.875C44.4587 30.3333 44.7505 30.3333 44.9714 30.4514C45.1458 30.5446 45.2887 30.6875 45.3819 30.8619C45.5 31.0828 45.5 31.3747 45.5 31.9583V37.3333C45.5 40.1617 45.5 41.576 44.6213 42.4546C43.7426 43.3333 42.3284 43.3333 39.5 43.3333H12.5C9.67157 43.3333 8.25736 43.3333 7.37868 42.4546C6.5 41.576 6.5 40.1617 6.5 37.3333V31.9583C6.5 31.3747 6.5 31.0828 6.61808 30.8619C6.71131 30.6875 6.85418 30.5446 7.0286 30.4514C7.24951 30.3333 7.54134 30.3333 8.125 30.3333H8.66667C9.90821 30.3333 10.529 30.3333 11.0261 30.1524C11.8594 29.8491 12.5158 29.1927 12.8191 28.3594C13 27.8623 13 27.2415 13 26V26C13 24.7584 13 24.1377 12.8191 23.6406C12.5158 22.8073 11.8594 22.1509 11.0261 21.8476C10.529 21.6667 9.90821 21.6667 8.66667 21.6667H8.125C7.54134 21.6667 7.24951 21.6667 7.0286 21.5486C6.85418 21.4553 6.71131 21.3125 6.61808 21.1381C6.5 20.9171 6.5 20.6253 6.5 20.0417V14.6667Z" fill="#40C9FF"/>
<path d="M25.5963 17.8853C25.796 17.6121 26.2038 17.6121 26.4035 17.8853L29.0634 21.5231C29.1251 21.6075 29.2117 21.6704 29.3111 21.703L33.5927 23.1086C33.9142 23.2141 34.0402 23.6019 33.8421 23.8763L31.2044 27.5301C31.1432 27.6148 31.1101 27.7167 31.1098 27.8212L31.0961 32.3276C31.0951 32.6661 30.7652 32.9057 30.4431 32.8021L26.153 31.4225C26.0535 31.3905 25.9464 31.3905 25.8469 31.4225L21.5568 32.8021C21.2346 32.9057 20.9047 32.666 20.9037 32.3276L20.8901 27.8212C20.8897 27.7167 20.8567 27.6148 20.7955 27.5301L18.1577 23.8763C17.9596 23.6019 18.0856 23.2141 18.4071 23.1086L22.6888 21.703C22.7881 21.6704 22.8747 21.6075 22.9365 21.5231L25.5963 17.8853Z" fill="white"/>
</svg>
