<svg width="24" height="24" viewBox="0 0 24 24" fill="none" xmlns="http://www.w3.org/2000/svg">
<path d="M12.0004 3.5C12.8399 3.50004 13.6426 3.67198 14.3744 3.98242C14.1062 4.21596 13.8694 4.48458 13.6713 4.78125C13.1466 4.59871 12.5839 4.50004 12.0004 4.5C9.40871 4.5 7.23101 6.44863 6.94471 9.02441L6.69374 11.291L6.6869 11.3506C6.56698 12.3953 6.25404 13.4074 5.766 14.3359L5.54628 14.7285L5.516 14.7793L4.93788 15.7432C4.67008 16.1895 4.48909 16.4923 4.37831 16.7275C4.26646 16.9651 4.26849 17.0506 4.27284 17.0781L4.29432 17.165C4.32389 17.2496 4.37616 17.3256 4.44569 17.3838L4.47303 17.4014C4.51463 17.423 4.60495 17.4539 4.80116 17.4736C5.05982 17.4996 5.41275 17.5 5.93299 17.5H18.0678C18.588 17.5 18.941 17.4996 19.1996 17.4736C19.4601 17.4474 19.5334 17.4018 19.5551 17.3838L19.6185 17.3193C19.6756 17.2506 19.7138 17.1674 19.7279 17.0781L19.7289 17.0449C19.7261 16.9982 19.7063 16.9056 19.6224 16.7275C19.5671 16.61 19.4942 16.4751 19.4017 16.3145L19.0629 15.7432L18.4848 14.7793L18.4545 14.7285C17.9167 13.8249 17.5519 12.8302 17.3773 11.7959L17.3139 11.3506L17.307 11.291L17.2728 10.9893C17.6151 10.9662 17.9449 10.8997 18.2582 10.7959L18.3012 11.1807L18.308 11.2363L18.3637 11.6299C18.5177 12.5423 18.8395 13.4197 19.3139 14.2168L19.3422 14.2646L19.9203 15.2285L20.2689 15.8154C20.3713 15.9935 20.4581 16.1551 20.5267 16.3008C20.6458 16.5536 20.741 16.8247 20.7279 17.1104L20.7162 17.2334C20.6668 17.5466 20.5193 17.8355 20.2973 18.0586L20.1967 18.1504C19.9397 18.3654 19.6177 18.4368 19.3002 18.4688C18.9796 18.501 18.5665 18.5 18.0678 18.5H5.93299C5.4343 18.5 5.02122 18.501 4.70057 18.4688C4.42256 18.4408 4.14094 18.3828 3.90272 18.2246L3.80409 18.1504C3.56075 17.9467 3.38882 17.6717 3.3119 17.3662L3.28456 17.2334C3.23244 16.9023 3.33798 16.5896 3.47401 16.3008C3.61134 16.0093 3.82393 15.6561 4.08046 15.2285L4.65858 14.2646L4.6869 14.2168L4.88124 13.8701C5.31169 13.051 5.58699 12.1579 5.69276 11.2363L5.6996 11.1807L5.95155 8.91406C6.29412 5.83185 8.89916 3.5 12.0004 3.5ZM16.1879 5.17188C17.1533 6.0876 17.8207 7.31947 18.0219 8.7168C17.7365 8.88701 17.4064 8.988 17.0521 8.99707C16.9038 7.72399 16.2936 6.60566 15.3998 5.80273C15.6036 5.5308 15.8738 5.31162 16.1879 5.17188Z" fill="#49EDFF"/>
<path d="M9.10222 18.4059C9.27315 19.1501 9.64978 19.8077 10.1737 20.2767C10.6976 20.7458 11.3396 21 12 21C12.6604 21 13.3024 20.7458 13.8263 20.2767C14.3502 19.8077 14.7269 19.1501 14.8978 18.4059" stroke="#49EDFF" stroke-linecap="round"/>
<circle cx="17" cy="7" r="2" fill="#FF0004"/>
</svg>
