<svg width="48" height="48" viewBox="0 0 48 48" fill="none" xmlns="http://www.w3.org/2000/svg">
<path d="M6 14C6 11.1716 6 9.75736 6.87868 8.87868C7.75736 8 9.17157 8 12 8H36C38.8284 8 40.2426 8 41.1213 8.87868C42 9.75736 42 11.1716 42 14V23.7C42 23.8414 42 23.9121 41.9561 23.9561C41.9121 24 41.8414 24 41.7 24H32C30.1144 24 29.1716 24 28.5858 24.5858C28 25.1716 28 26.1144 28 28V30C28 31.8856 28 32.8284 28.5858 33.4142C29.1716 34 30.1144 34 32 34H41.7143C41.8419 34 41.9057 34 41.9478 34.0363C41.9535 34.0412 41.9588 34.0465 41.9637 34.0522C42 34.0943 42 34.1581 42 34.2857V34.2857C42 36.8373 42 38.1131 41.2739 38.9569C41.1763 39.0703 41.0703 39.1763 40.9569 39.2739C40.1131 40 38.8373 40 36.2857 40H12C9.17157 40 7.75736 40 6.87868 39.1213C6 38.2426 6 36.8284 6 34V14Z" fill="#6496E9"/>
<path d="M28 26C28 24.8954 28.8954 24 30 24H41.85C41.9328 24 42 24.0672 42 24.15V33.85C42 33.9328 41.9328 34 41.85 34H30C28.8954 34 28 33.1046 28 32V26Z" fill="#F9F9F9"/>
<rect x="12" y="14" width="12" height="2" rx="1" fill="#F9F9F9"/>
</svg>
